<?xml version="1.0" encoding="UTF-8" standalone="no"?>
<!-- Generator: Adobe Illustrator 14.0.0, SVG Export Plug-In . SVG Version: 6.00 Build 43363)  -->

<svg
   xmlns:dc="http://purl.org/dc/elements/1.1/"
   xmlns:cc="http://creativecommons.org/ns#"
   xmlns:rdf="http://www.w3.org/1999/02/22-rdf-syntax-ns#"
   xmlns:svg="http://www.w3.org/2000/svg"
   xmlns="http://www.w3.org/2000/svg"
   xmlns:sodipodi="http://sodipodi.sourceforge.net/DTD/sodipodi-0.dtd"
   xmlns:inkscape="http://www.inkscape.org/namespaces/inkscape"
   version="1.1"
   id="Layer_1"
   x="0px"
   y="0px"
   width="612"
   height="612"
   viewBox="91.801 15.624 611.99997 611.99998"
   enable-background="new 91.801 15.624 611.306 568.512"
   xml:space="preserve"
   inkscape:version="0.47 r22583"
   sodipodi:docname="awumpus_logo.svg"
   inkscape:export-filename="/home/sauce/workspace/AWumpus/res/drawable/icon.png"
   inkscape:export-xdpi="7.0588236"
   inkscape:export-ydpi="7.0588236"><metadata
   id="metadata33"><rdf:RDF><cc:Work
       rdf:about=""><dc:format>image/svg+xml</dc:format><dc:type
         rdf:resource="http://purl.org/dc/dcmitype/StillImage" /><dc:title></dc:title></cc:Work></rdf:RDF></metadata><defs
   id="defs31"><inkscape:perspective
   sodipodi:type="inkscape:persp3d"
   inkscape:vp_x="0 : 284.25601 : 1"
   inkscape:vp_y="0 : 1000 : 0"
   inkscape:vp_z="611.30603 : 284.25601 : 1"
   inkscape:persp3d-origin="305.65302 : 189.50401 : 1"
   id="perspective35" />
	
	

		
		
		
	</defs><sodipodi:namedview
   pagecolor="#ffffff"
   bordercolor="#666666"
   borderopacity="1"
   objecttolerance="10"
   gridtolerance="10"
   guidetolerance="10"
   inkscape:pageopacity="0"
   inkscape:pageshadow="2"
   inkscape:window-width="1539"
   inkscape:window-height="952"
   id="namedview29"
   showgrid="false"
   inkscape:snap-bbox="true"
   inkscape:zoom="1.0131712"
   inkscape:cx="417.28801"
   inkscape:cy="345.71732"
   inkscape:window-x="0"
   inkscape:window-y="25"
   inkscape:window-maximized="0"
   inkscape:current-layer="Layer_1" />
<g
   id="g2856"
   transform="matrix(1.1704602,0,0,1.1704602,-55.647575,29.417823)"><path
     style="fill:#94c147"
     id="path23"
     d="m 559.1601,162.29256 c -15.72552,0 -28.4809,12.95212 -28.4809,28.9233 v 113.02541 c 0,15.97562 12.75538,28.92219 28.4809,28.92219 15.72551,0 28.46755,-12.94545 28.46755,-28.92219 V 191.21586 c 10e-4,-15.97118 -12.74093,-28.9233 -28.46755,-28.9233 z m -343.49033,0 c -15.73441,0 -28.47644,12.95212 -28.47644,28.9233 v 113.02541 c 0,15.97562 12.74092,28.92219 28.47644,28.92219 15.73219,0 28.48201,-12.94545 28.48201,-28.92219 V 191.21586 c -0.009,-15.97118 -12.75538,-28.9233 -28.48201,-28.9233 z" /><path
     sodipodi:nodetypes="cccccsccccscccccsssscc"
     style="fill:#94c147"
     id="path25"
     d="m 261.28122,163.17515 0,206.49592 c 0,12.26628 9.94641,22.20936 22.21269,22.20936 l 25.36069,0 0,62.87872 c 0,15.9734 12.74982,28.91886 28.48201,28.91886 15.72662,0 28.482,-12.94546 28.482,-28.91886 l 0,-62.87872 44.32757,0 0,62.87872 c 0,15.9734 12.74204,28.91886 28.46756,28.91886 15.72551,0 28.48089,-12.94546 28.48089,-28.91886 l 0,-62.87872 25.37514,0 c 12.25183,0 22.19935,-9.95197 22.19935,-22.20936 l 0,-206.49592 c -26.99884,7.77324 -41.46384,6.39917 -64.44878,1.54441 -14.85334,-3.13725 -24.03162,19.56946 -39.55665,18.09368 -21.68301,-2.06114 -24.38886,-23.52782 -45.48116,-18.77658 -22.08941,4.97585 -24.43937,31.48934 -50.59597,13.67696 -22.90157,-15.59574 -35.17704,-20.77665 -53.30534,-14.53847 l 0,0 z" /><path
     sodipodi:nodetypes="cccccsccscccsssscccsssccsssc"
     style="fill:#94c147"
     id="path27"
     d="m 447.47414,56.175611 23.40653,-33.983212 c 1.38391,-2.021963 1.04377,-4.667522 -0.77255,-5.923607 -1.81966,-1.248304 -4.41075,-0.631378 -5.808,1.390586 L 439.98431,52.95203 c -16.01119,-6.315995 -33.81203,-9.83081 -52.56993,-9.83081 -18.75235,0 -36.56319,3.514815 -52.57438,9.83081 L 310.52419,17.659378 c -1.39725,-2.021964 -3.98945,-2.640002 -5.808,-1.390586 -1.81854,1.249415 -2.16313,3.900532 -0.77366,5.923607 l 23.40653,33.983212 c -37.1979,17.307294 -63.30557,50.205609 -66.62919,88.599559 17.90009,-5.21579 33.61679,-17.90002 53.56187,-0.37427 17.87742,15.7089 46.16656,-22.3138 63.80934,-10.31332 12.3077,8.3716 26.22835,24.97488 43.3907,13.52817 14.22905,-9.49029 44.27892,-24.31512 52.30253,-6.77039 7.93222,17.34489 27.85002,3.92981 40.3268,3.92981 -3.32473,-38.39395 -29.4324,-71.291153 -66.63697,-88.599559 z M 333.96519,109.72596 c -7.74216,0 -14.0248,-6.27598 -14.0248,-14.02369 0,-7.734371 0.88998,-16.850541 8.34955,-14.757269 19.34496,5.4285 19.68448,7.022898 19.68448,14.757269 0,7.74215 -6.26931,14.02369 -14.00923,14.02369 z m 108.65023,0 c -7.74771,0 -14.01591,-6.27598 -14.01591,-14.02369 0,-7.734371 3.06156,-10.069019 20.18466,-14.263769 7.52627,-1.843757 7.84827,6.529398 7.84827,14.263769 0,7.74215 -6.26931,14.02369 -14.01702,14.02369 z" /></g>
</svg>